# xmcd
#
# Track frame offsets:
#	183
#	20598
#	39008
#	61265
#	73938
#	92678
#	111483
#	125390
#	142208
#	160690
#
# Disc length: 2349 seconds
#
# Revision: 1
# Processed by: cddbd v1.5.1PL2 Copyright (c) Steve Scherf et al.
# Submitted via: audiograbber 1.83.01
#
DISCID=89092b0a
DTITLE=Bruce Hauser and Sawmill Creek - At Home
DYEAR=1990
DGENRE=Country
TTITLE0=Wyoming My Sweet Destiny
TTITLE1=Mississippi
TTITLE2=Man of Responsibility
TTITLE3=Money
TTITLE4=Parts of My Heart
TTITLE5=Stagger Lee 
TTITLE6=I Let It Happen Again
TTITLE7=Shapes and Sizes
TTITLE8=Don't Be A Fool 
TTITLE9=The Rains' Gonna Follow Me 
EXTD=All songs by Bruce Hauser\nPublished by Up The Creek Music (ASCAP) 1990\nE
EXTD=xcept Stagger Lee (BMI) Logan and Price\nPublished by M.I. Unarte Catalog
EXTT0=
EXTT1=
EXTT2=
EXTT3=
EXTT4=
EXTT5=
EXTT6=
EXTT7=
EXTT8=
EXTT9=
PLAYORDER=
